<svg width="163" height="160" viewBox="0 0 163 160" fill="none" xmlns="http://www.w3.org/2000/svg">
<g opacity="0.06">
<path d="M82.9041 60.1227L82.9041 79.9963H102.778C113.864 79.9963 122.852 71.0087 122.852 59.922V40.0483H102.978C91.8917 40.0483 82.9041 49.0359 82.9041 60.1227Z" fill="#91A4AE"/>
<path d="M91.5361 60.0223C91.5361 66.5081 96.7939 71.7658 103.28 71.7658C109.765 71.7658 115.023 66.5081 115.023 60.0223V48.2788L103.28 48.2788C96.7939 48.2788 91.5361 53.5366 91.5361 60.0223Z" fill="#38474F"/>
<path d="M82.9041 72.1071V80.0967H90.8936C97.5124 80.0967 102.878 74.7311 102.878 68.1123V60.1227H94.8884C88.2696 60.1227 82.9041 65.4883 82.9041 72.1071Z" fill="#DEE2E6"/>
<path d="M162.8 19.974V0.100361L142.926 0.100361C131.839 0.100361 122.852 9.08796 122.852 20.1747V40.0483H142.725C153.812 40.0483 162.8 31.0607 162.8 19.974Z" fill="#91A4AE"/>
<path d="M154.168 20.0743C154.168 13.5886 148.91 8.33081 142.424 8.33081C135.938 8.33081 130.681 13.5886 130.681 20.0743V31.8178L142.424 31.8178C148.91 31.8178 154.168 26.5601 154.168 20.0743Z" fill="#38474F"/>
<path d="M162.8 7.98954V-5.14984e-05H154.81C148.191 -5.14984e-05 142.826 5.36554 142.826 11.9843V19.9739L150.815 19.9739C157.434 19.9739 162.8 14.6083 162.8 7.98954Z" fill="#DEE2E6"/>
<path d="M162.8 60.1227V79.9963H142.926C131.839 79.9963 122.852 71.0087 122.852 59.922V40.0483H142.725C153.812 40.0483 162.8 49.0359 162.8 60.1227Z" fill="#ADB5BD"/>
<path d="M154.168 60.0223C154.168 66.5081 148.91 71.7658 142.424 71.7658C135.938 71.7658 130.681 66.5081 130.681 60.0223V48.2788L142.424 48.2788C148.91 48.2788 154.168 53.5366 154.168 60.0223Z" fill="#38474F"/>
<path d="M162.8 72.1071V80.0967H154.81C148.191 80.0967 142.826 74.7311 142.826 68.1123V60.1227H150.815C157.434 60.1227 162.8 65.4883 162.8 72.1071Z" fill="#DEE2E6"/>
<path d="M82.9041 19.974L82.9041 0.100361L102.778 0.100361C113.864 0.100361 122.852 9.08796 122.852 20.1747V40.0483H102.978C91.8917 40.0483 82.9041 31.0607 82.9041 19.974Z" fill="#ADB5BD"/>
<path d="M91.5361 20.0743C91.5361 13.5886 96.7939 8.33081 103.28 8.33081C109.765 8.33081 115.023 13.5886 115.023 20.0743V31.8178L103.28 31.8178C96.7939 31.8178 91.5361 26.5601 91.5361 20.0743Z" fill="#38474F"/>
<path d="M82.9041 7.98954V-5.14984e-05H90.8936C97.5124 -5.14984e-05 102.878 5.36554 102.878 11.9843V19.9739L94.8884 19.9739C88.2696 19.9739 82.9041 14.6083 82.9041 7.98954Z" fill="#DEE2E6"/>
<path d="M102.878 160C113.909 160 122.852 151.057 122.852 140.026C122.852 128.995 113.909 120.052 102.878 120.052C91.8467 120.052 82.9041 128.995 82.9041 140.026C82.9041 151.057 91.8467 160 102.878 160Z" fill="#91A4AE"/>
<path d="M102.976 151.952C109.617 151.952 115 146.568 115 139.928C115 133.287 109.617 127.904 102.976 127.904C96.3356 127.904 90.9524 133.287 90.9524 139.928C90.9524 146.568 96.3356 151.952 102.976 151.952Z" fill="#F8F9FA"/>
<path d="M103.173 146.161C106.723 146.161 109.602 143.282 109.602 139.732C109.602 136.181 106.723 133.303 103.173 133.303C99.622 133.303 96.7437 136.181 96.7437 139.732C96.7437 143.282 99.622 146.161 103.173 146.161Z" fill="#38474F"/>
<path d="M122.852 144.296V120.052H98.6086C98.6086 133.441 109.463 144.296 122.852 144.296Z" fill="#ADB5BD"/>
<path d="M142.826 80.1041C131.794 80.1041 122.852 89.0467 122.852 100.078C122.852 111.109 131.794 120.052 142.826 120.052C153.857 120.052 162.8 111.109 162.8 100.078C162.8 89.0467 153.857 80.1041 142.826 80.1041Z" fill="#91A4AE"/>
<path d="M142.728 88.1526C136.087 88.1526 130.704 93.5358 130.704 100.176C130.704 106.817 136.087 112.2 142.728 112.2C149.368 112.2 154.751 106.817 154.751 100.176C154.751 93.5358 149.368 88.1526 142.728 88.1526Z" fill="#F8F9FA"/>
<path d="M142.531 93.9435C138.981 93.9435 136.102 96.8219 136.102 100.373C136.102 103.923 138.981 106.801 142.531 106.801C146.082 106.801 148.96 103.923 148.96 100.373C148.96 96.8219 146.082 93.9435 142.531 93.9435Z" fill="#38474F"/>
<path d="M122.852 95.8085V120.052H147.095C147.095 106.663 136.241 95.8085 122.852 95.8085Z" fill="#ADB5BD"/>
<path d="M142.826 160C153.857 160 162.8 151.057 162.8 140.026C162.8 128.995 153.857 120.052 142.826 120.052H122.852L122.852 140.026C122.852 151.057 131.794 160 142.826 160Z" fill="#F8F9FA"/>
<path d="M134.796 143.94C141.393 143.94 146.74 138.593 146.74 131.996C146.74 125.4 141.393 120.052 134.796 120.052H122.852V131.996C122.852 138.593 128.199 143.94 134.796 143.94Z" fill="#38474F"/>
<path d="M142.826 152.422C149.561 152.422 155.021 146.962 155.021 140.227C155.021 133.491 149.561 128.032 142.826 128.032C136.091 128.032 130.631 133.491 130.631 140.227C130.631 146.962 136.091 152.422 142.826 152.422Z" fill="#91A4AE"/>
<path d="M142.826 147.366C146.769 147.366 149.965 144.169 149.965 140.227C149.965 136.284 146.769 133.088 142.826 133.088C138.883 133.088 135.687 136.284 135.687 140.227C135.687 144.169 138.883 147.366 142.826 147.366Z" fill="#38474F"/>
<path d="M102.878 80.1041C91.8467 80.1041 82.9041 89.0467 82.9041 100.078C82.9041 111.109 91.8467 120.052 102.878 120.052H122.852L122.852 100.078C122.852 89.0467 113.909 80.1041 102.878 80.1041Z" fill="#F8F9FA"/>
<path d="M110.908 96.1636C104.311 96.1636 98.9636 101.511 98.9636 108.108C98.9636 114.704 104.311 120.052 110.908 120.052H122.852V108.108C122.852 101.511 117.504 96.1636 110.908 96.1636Z" fill="#38474F"/>
<path d="M102.878 87.6821C96.1429 87.6821 90.6829 93.1421 90.6829 99.8773C90.6829 106.613 96.1429 112.072 102.878 112.072C109.613 112.072 115.073 106.613 115.073 99.8773C115.073 93.1421 109.613 87.6821 102.878 87.6821Z" fill="#91A4AE"/>
<path d="M102.878 92.7384C98.9354 92.7384 95.7392 95.9346 95.7392 99.8773C95.7392 103.82 98.9354 107.016 102.878 107.016C106.821 107.016 110.017 103.82 110.017 99.8773C110.017 95.9346 106.821 92.7384 102.878 92.7384Z" fill="#38474F"/>
<path d="M16.4526 164.141C22.7605 170.434 32.9758 170.422 39.269 164.114C45.5622 157.806 45.5502 147.591 39.2422 141.297C32.9342 135.004 22.7189 135.016 16.4257 141.324C10.1326 147.632 10.1446 157.847 16.4526 164.141Z" fill="#F8F9FA"/>
<path d="M13.823 165.976C6.5348 158.705 6.52093 146.903 13.792 139.614L14.187 139.219L14.5829 139.613C21.8711 146.885 21.885 158.687 14.6139 165.975L14.2189 166.371L13.823 165.976Z" fill="#ADB5BD"/>
<path d="M40.976 165.945L41.3719 166.339L40.977 166.735C33.7059 174.024 21.9032 174.037 14.6149 166.766L14.2191 166.371L14.614 165.975C21.8851 158.687 33.6878 158.673 40.976 165.945Z" fill="#91A4AE"/>
<path d="M28.1752 153.174L27.7794 152.779L28.1743 152.383C35.4454 145.095 47.2481 145.081 54.5363 152.352L54.9322 152.747L54.5373 153.143C47.2662 160.431 35.4635 160.445 28.1752 153.174Z" fill="#ADB5BD"/>
<path d="M28.1435 126.021C35.4317 133.292 35.4455 145.095 28.1744 152.383L27.7795 152.779L27.3836 152.384C20.0953 145.113 20.0815 133.31 27.3526 126.022L27.7476 125.626L28.1435 126.021Z" fill="#91A4AE"/>
<path d="M69.5563 133.489C75.8569 127.189 75.8592 116.976 69.5616 110.678C63.264 104.38 53.0511 104.383 46.7505 110.683C40.4499 116.984 40.4475 127.197 46.7452 133.494C53.0428 139.792 63.2557 139.79 69.5563 133.489Z" fill="#F8F9FA"/>
<path d="M58.1534 95.0001C65.6145 102.461 65.6294 114.543 58.1866 121.986C50.7254 114.525 50.7106 102.443 58.1534 95.0001Z" fill="#ADB5BD"/>
<path d="M57.5929 121.793L57.9864 122.186L57.5939 122.579C50.3678 129.805 38.6377 129.79 31.3939 122.546L31.0004 122.153L31.3929 121.76C38.619 114.534 50.3491 114.549 57.5929 121.793Z" fill="#91A4AE"/>
<path d="M57.7277 122.712L58.1202 122.32L58.5137 122.713C65.7575 129.957 65.7719 141.687 58.5459 148.913L58.1534 149.306L57.7599 148.912C50.5161 141.669 50.5016 129.938 57.7277 122.712Z" fill="#ADB5BD"/>
<path d="M84.9127 121.76L85.3062 122.153L84.9137 122.546C77.6877 129.772 65.9575 129.757 58.7137 122.513L58.3203 122.12L58.7128 121.727C65.9388 114.501 77.6689 114.516 84.9127 121.76Z" fill="#91A4AE"/>
<path d="M73.3425 140L69.1712 144.974C66.8675 147.721 67.2378 151.825 69.9983 154.14C72.7588 156.455 76.8642 156.105 79.168 153.358C81.4717 150.61 81.1014 146.507 78.3409 144.192L73.3425 140Z" fill="#91A4AE"/>
<path d="M85.406 39.1855L80.8183 34.5928C78.2846 32.0563 74.1643 32.064 71.6154 34.6102C69.0664 37.1563 69.054 41.2766 71.5878 43.8131C74.1215 46.3496 78.2418 46.3418 80.7907 43.7957L85.406 39.1855Z" fill="#91A4AE"/>
</g>
</svg>
